<?xml version="1.0" standalone="no"?>
<!DOCTYPE svg PUBLIC "-//W3C//DTD SVG 20010904//EN"
 "http://www.w3.org/TR/2001/REC-SVG-20010904/DTD/svg10.dtd">
<svg version="1.0" xmlns="http://www.w3.org/2000/svg"
 width="281.000000pt" height="281.000000pt" viewBox="0 0 281.000000 281.000000"
 preserveAspectRatio="xMidYMid meet">
<metadata>
Created by potrace 1.11, written by Peter Selinger 2001-2013
</metadata>
<g transform="translate(0.000000,281.000000) scale(0.100000,-0.100000)"
fill="#000000" stroke="none">
<path d="M401 2647 c-13 -16 -16 -547 -10 -1519 4 -733 -1 -680 75 -699 21 -6
55 -14 74 -19 19 -4 71 -17 115 -28 84 -21 225 -42 288 -42 31 0 39 4 48 27 7
18 6 36 -1 56 -20 58 -14 69 98 178 94 92 307 290 369 342 21 18 22 17 223
-205 112 -123 253 -277 315 -343 67 -71 118 -135 125 -157 17 -47 53 -65 86
-43 20 13 23 23 23 72 -1 32 4 92 11 133 6 41 13 123 15 181 2 59 8 116 14
128 18 33 3 71 -36 87 -37 16 -140 120 -336 339 l-125 140 111 120 c190 205
471 487 495 496 30 12 28 32 -7 67 -33 32 -59 72 -94 144 -13 26 -41 73 -62
105 -81 122 -91 139 -103 166 -6 15 -16 27 -21 27 -13 0 -374 -368 -658 -670
-236 -252 -426 -440 -443 -440 -6 0 -10 24 -10 53 0 28 -3 216 -6 417 -3 201
-1 446 4 545 5 99 6 183 3 187 -4 5 -20 10 -36 12 -61 8 -160 31 -166 38 -8
12 -176 68 -202 68 -25 0 -133 33 -143 43 -11 10 -20 9 -33 -6z"/>
</g>
</svg>
